<svg xmlns="http://www.w3.org/2000/svg" width="23.274" height="16.316" viewBox="0 0 431 302.156">
  <defs>
    <style>
      .cls-1 {
        fill-rule: evenodd;
      }
    </style>
  </defs>
  <path id="Color_Fill_1" data-name="Color Fill 1" class="cls-1" d="M197,83c12.4,0.052,26.207,4,31,12-4.881,3.281-2.586,11.727-6,19l-20,27c-2.93,10.713,2.645,15.681,5,22,4.881,13.094-1.174,27.711,5,39,4.726,8.642,40.939,43.545,50,47h22c4.676,2.615,6.293,11.134,17,8l14-10c13.4,1.7,19.134,6.9,25,16a51.855,51.855,0,0,1-6,24c-26,8.486-24.237,65.572-9,77,3.491,2.406,9.473,2.551,13,1,1.183-5.216,3.191-9.773,3-13,31.551,15.745,89.567,33.569,134,22,10.678-2.78,24.615,1.1,33-2q1,2.5,2,5l-1,2c-75.634.357-172.465,20.529-222-14V342l-29-21c-11.507-5.221-30.131-3.321-38-12-6.031-6.651-5.473-14.726-13-20l-24-12c-14.348-10.764-27.13-24.94-41-36-6.386.368-6.435,1.482-10,4-4.611,13.837-18.74,20.094-22,34-15.7,2.53-22.916-2.543-31-10C77.929,200.759,152.57,108.634,197,83Zm-16,89q-14,22.5-28,45l3,8,16,13c7-1.189,20.557-5.654,22-13-5.08-9.145-11.989-14.172-18-22v-8c5.664-4.077,10.546-8.626,14-15l-4-8h-5ZM346,364c-1.566,5.732.339,10.954,3,15,8.01,0.376,21.688,1.807,25-3,1.155-3.4.362-4.161-1-7Z" transform="translate(-79 -83)"/>
</svg>
